<svg width="33" height="31" viewBox="0 0 33 31" fill="none" xmlns="http://www.w3.org/2000/svg">
<g clip-path="url(#clip0)">
<path d="M32.7282 15.4067C32.7282 14.3829 32.6382 13.3536 32.4461 12.3464H17.0387V18.146H25.8618C25.4957 20.0165 24.3193 21.6711 22.5967 22.7226V26.4857H27.8605C30.9516 23.8626 32.7282 19.9888 32.7282 15.4067Z" fill="white"/>
<path d="M17.0387 30.1215C21.4442 30.1215 25.1595 28.7878 27.8665 26.4857L22.6026 22.7225C21.1381 23.6412 19.2475 24.1614 17.0447 24.1614C12.7832 24.1614 9.1699 21.5106 7.87344 17.9467H2.44153V21.826C5.21451 26.9118 10.8625 30.1215 17.0387 30.1215Z" fill="white"/>
<path d="M7.86775 17.9467C7.18351 16.0762 7.18351 14.0508 7.86775 12.1803V8.30099H2.44184C0.12502 12.5566 0.12502 17.5704 2.44184 21.8261L7.86775 17.9467Z" fill="white"/>
<path d="M17.0387 5.96011C19.3675 5.9269 21.6183 6.73487 23.3049 8.21797L27.9685 3.91807C25.0155 1.36137 21.0961 -0.044264 17.0387 7.84534e-06C10.8625 7.84534e-06 5.21451 3.20972 2.44153 8.30098L7.86744 12.1803C9.1579 8.61089 12.7772 5.96011 17.0387 5.96011Z" fill="white"/>
</g>
<defs>
<clipPath id="clip0">
<rect width="32.0213" height="30.1215" fill="white" transform="translate(0.706909)"/>
</clipPath>
</defs>
</svg>
