<svg width="32" height="39" viewBox="0 0 32 39" fill="none" xmlns="http://www.w3.org/2000/svg">
<path d="M32 15.9912C31.9977 13.0944 31.2094 10.2526 29.7191 7.76877C28.2289 5.28495 26.0927 3.25227 23.5382 1.8875C20.9837 0.522727 18.1068 -0.122947 15.2142 0.0193151C12.3217 0.161578 9.52198 1.08645 7.11367 2.6953C4.70537 4.30416 2.77877 6.53665 1.53934 9.15472C0.299915 11.7728 -0.205867 14.6783 0.0759341 17.5613C0.357735 20.4443 1.41655 23.1968 3.13947 25.5251C4.86239 27.8535 7.1848 29.6705 9.85904 30.7823V35.931H12.3531L14.6142 38.8571H17.294L19.624 35.931H22.1066V30.7788C25.0345 29.5713 27.538 27.5212 29.2994 24.8885C31.0608 22.2557 32.0007 19.159 32 15.9912Z" fill="#00C14E"/>
</svg>
